<?xml version="1.0" encoding="iso-8859-1"?>
<!-- Uploaded to: SVG Repo, www.svgrepo.com, Generator: SVG Repo Mixer Tools -->
<svg fill="#ffffff" height="800px" width="800px" version="1.1" id="Layer_1" xmlns="http://www.w3.org/2000/svg" xmlns:xlink="http://www.w3.org/1999/xlink" 
	 viewBox="0 0 512 512" xml:space="preserve">
<g>
	<g>
		<path d="M384,0c-42.351,0-76.8,34.449-76.8,76.8c0,42.351,34.449,76.8,76.8,76.8s76.8-34.449,76.8-76.8
			C460.8,34.449,426.351,0,384,0z M384,128c-28.271,0-51.2-22.921-51.2-51.2s22.929-51.2,51.2-51.2c28.279,0,51.2,22.921,51.2,51.2
			S412.279,128,384,128z"/>
	</g>
</g>
<g>
	<g>
		<path d="M307.354,490.479l-1.485-18.662c-23.39,9.31-48.802,14.583-75.469,14.583c-112.93,0-204.8-91.87-204.8-204.8
			S117.47,76.8,230.4,76.8c17.954,0,35.294,2.56,51.9,6.921c-0.162-2.33-0.7-4.548-0.7-6.921c0-6.579,0.751-12.962,1.937-19.191
			C266.453,53.564,248.721,51.2,230.4,51.2C103.151,51.2,0,154.351,0,281.6S103.151,512,230.4,512
			c27.537,0,53.828-5.077,78.31-13.943C308.122,495.573,307.567,493.082,307.354,490.479z"/>
	</g>
</g>
<g>
	<g>
		<path d="M486.4,325.12h-3.302L460.39,200.226c-2.219-12.177-12.817-21.026-25.19-21.026H332.8
			c-12.365,0-22.972,8.849-25.19,21.026l-25.6,140.8c-1.357,7.467,0.666,15.155,5.53,20.983c4.873,5.82,12.066,9.19,19.661,9.19
			h16.358l9.327,117.231C333.943,501.734,345.054,512,358.4,512h51.2c13.355,0,24.465-10.266,25.515-23.569l4.241-53.231H486.4
			c14.14,0,25.6-11.46,25.6-25.6v-58.88C512,336.58,500.54,325.12,486.4,325.12z M409.6,486.4h-51.2l-11.204-140.8H307.2l25.6-140.8
			h38.4v77.875c0,7.074,5.726,12.8,12.8,12.8c7.074,0,12.8-5.726,12.8-12.8V204.8h38.4l21.871,120.32H404.48
			c-14.14,0-25.6,11.46-25.6,25.6v58.88c0,14.14,11.46,25.6,25.6,25.6h9.19L409.6,486.4z M486.4,409.6h-81.92v-58.88h81.92V409.6z"
			/>
	</g>
</g>
<g>
	<g>
		<path d="M243.2,245.547V102.4h-25.6v143.147c-10.854,3.866-19.388,12.39-23.253,23.253H102.4v25.6h91.947
			C199.637,309.282,213.7,320,230.4,320c21.205,0,38.4-17.195,38.4-38.4C268.8,264.909,258.082,250.837,243.2,245.547z M230.4,294.4
			c-7.057,0-12.8-5.743-12.8-12.8s5.743-12.8,12.8-12.8s12.8,5.743,12.8,12.8S237.457,294.4,230.4,294.4z"/>
	</g>
</g>
</svg>