<?xml version="1.0" encoding="iso-8859-1"?>
<!-- Uploaded to: SVG Repo, www.svgrepo.com, Generator: SVG Repo Mixer Tools -->
<svg fill="#ffffff" height="800px" width="800px" version="1.1" id="Layer_1" xmlns="http://www.w3.org/2000/svg" xmlns:xlink="http://www.w3.org/1999/xlink" 
	 viewBox="0 0 512 512" xml:space="preserve">
<g>
	<g>
		<path d="M256.001,310.468c-106.62,0-193.362,86.742-193.362,193.362c0,4.513,3.657,8.17,8.17,8.17s8.17-3.657,8.17-8.17
			c0-65.947,36.254-123.579,89.872-154.035V503.83c0,4.513,3.657,8.17,8.17,8.17s8.17-3.657,8.17-8.17V341.605
			c9.447-4.14,19.319-7.477,29.535-9.926l16.472,37.062l-15.941,96.195c-0.398,2.404,0.297,4.861,1.897,6.698l32.681,37.559
			c1.553,1.783,3.801,2.806,6.165,2.806s4.611-1.023,6.164-2.807l32.681-37.559c1.599-1.839,2.294-4.294,1.897-6.698l-15.941-96.195
			l16.472-37.062c10.216,2.45,20.089,5.788,29.535,9.926V503.83c0,4.513,3.657,8.17,8.17,8.17s8.17-3.657,8.17-8.17V349.795
			c53.618,30.456,89.872,88.088,89.872,154.035c0,4.513,3.657,8.17,8.17,8.17s8.17-3.657,8.17-8.17
			C449.362,397.21,362.621,310.468,256.001,310.468z M256.001,491.383l-23.991-27.573l14.579-87.98h18.825l14.579,87.981
			L256.001,491.383z M267.031,359.489H244.97l-13.75-30.938c8.1-1.139,16.371-1.743,24.782-1.743s16.681,0.603,24.782,1.743
			L267.031,359.489z"/>
	</g>
</g>
<g>
	<g>
		<circle cx="367.66" cy="471.149" r="8.17"/>
	</g>
</g>
<g>
	<g>
		<circle cx="367.66" cy="438.468" r="8.17"/>
	</g>
</g>
<g>
	<g>
		<path d="M256.001,0c-64.572,0-117.106,52.534-117.106,117.106c0,42.118,22.453,80.715,58.848,101.603l6.813,26.723
			c-3.411,0.982-5.909,4.119-5.909,7.847c0,4.513,3.657,8.17,8.17,8.17h1.823l2.727,10.693
			c3.142,12.329,15.569,21.988,28.294,21.988h32.681c12.725,0,25.152-9.657,28.294-21.987l2.727-10.694h1.823
			c4.513,0,8.17-3.657,8.17-8.17c0-3.728-2.498-6.865-5.909-7.847l6.813-26.723c36.396-20.887,58.848-59.484,58.848-101.603
			C373.107,52.534,320.572,0,256.001,0z M284.801,268.107c-1.292,5.067-7.23,9.681-12.46,9.681H239.66
			c-5.23,0-11.168-4.613-12.46-9.682l-1.697-6.658h60.996L284.801,268.107z M303.365,206.063c-2.025,1.082-3.503,2.965-4.07,5.191
			l-8.631,33.854h-69.327l-8.631-33.854c-0.568-2.226-2.045-4.108-4.07-5.191c-32.94-17.578-53.402-51.664-53.402-88.956
			c0-55.563,45.203-100.766,100.766-100.766c55.563,0,100.766,45.203,100.766,100.766
			C356.767,154.398,336.305,188.485,303.365,206.063z"/>
	</g>
</g>
<g>
	<g>
		<path d="M298.623,126.625c-3.042-2.004-7.044-1.754-9.812,0.619l-13.749,11.783l-13.748-11.783c-3.06-2.623-7.574-2.623-10.634,0
			l-13.746,11.781l-13.744-11.781c-2.766-2.372-6.768-2.626-9.812-0.619c-3.043,2.004-4.39,5.781-3.303,9.26l27.234,87.149
			c1.067,3.411,4.225,5.733,7.798,5.733h21.787c3.573,0,6.732-2.323,7.798-5.733l27.234-87.149
			C303.013,132.408,301.665,128.63,298.623,126.625z M260.887,212.426h-9.775l-17.202-55.047c2.756,1.099,5.982,0.635,8.341-1.388
			l13.746-11.783l13.748,11.783c2.361,2.024,5.59,2.486,8.345,1.386L260.887,212.426z"/>
	</g>
</g>
</svg>